<?xml version="1.0" encoding="UTF-8"?>
<svg id="Capa_1" xmlns="http://www.w3.org/2000/svg" version="1.1" viewBox="0 0 16 16">
  <!-- Generator: Adobe Illustrator 29.6.1, SVG Export Plug-In . SVG Version: 2.1.1 Build 9)  -->
  <defs>
    <style>
      .st0 {
        fill: #fff;
        fill-rule: evenodd;
      }
    </style>
  </defs>
  <path class="st0" d="M2.75,11.14c.76.83,1.9,1.52,3.27,1.61,1.84.13,2.87-.63,3.62-1.66-.54,1.9-1.75,3.32-3.92,3.67,2.31.19,3.69-1.03,4.44-2.66,1.21-2.64.27-6.32-2.62-6.54.4-.29,1.26-.35,1.87-.28-.3-.33-.86-.6-1.49-.61-1.29-.01-2.4,1.12-2.27,2.43.05.48.29.74.65.98-.19-.34-.16-1.19.09-1.4.16-.13.54-.26.89-.23.81.07,1.29.78,1.35,1.61.09,1.15-.53,2.28-1.24,2.64-.81.41-1.97,0-2.41-.42-.46-.45-.84-1.18-.96-1.96-.12-.81-.01-1.91.23-2.55.49-1.28,1.63-2.57,3.15-2.69,1.73-.13,2.87,1.11,3.55,2.15.72,1.09,1.21,2.31,1.33,3.88.19,2.44-.53,4.73-1.42,6.35-.12.21-.24.41-.38.6h1.55c.25-.46.47-.94.65-1.46.28-.81.43-1.72.63-2.66.21-.96.31-1.97.26-2.97-.11-2.07-.73-3.58-1.73-4.83-.97-1.22-2.26-2.22-4.04-2.5,2.02-.4,3.81.35,4.93,1.31.57.49,1.08,1.08,1.52,1.73.43.65.83,1.43.84,2.41.1-1.13-.24-2.06-.68-2.8-.43-.73-.96-1.39-1.59-1.91-1.2-1.01-3.15-1.92-5.3-1.42-2.79.64-4.55,2.46-5.04,5.46-.16.98-.17,2.13.16,3.11-.67-1.22-1.02-3.12-.63-4.81.36-1.56,1.11-2.82,1.91-3.85-1.55,1.43-3.19,3.62-2.66,6.89.21,1.32.68,2.54,1.47,3.41Z"/>
</svg>